#!OML:ASF H:\Terrain\Walking\May29\JustinRory\Justin.ASF
:FULLY-SPECIFIED
:DEGREES
49
root 8.88409 17.676 5.47263 -162.789 -63.4304 168.177
lowerback 7.21491 -1.74421 -4.65822
upperback 3.56449 -2.75284 3.46968
thorax 0.0473619 -1.54767 6.42544
lowerneck -1.75775 -14.8143 -16.7997
upperneck 14.4503 -22.4224 15.5826
head 8.44539 -10.9254 5.39332
rclavicle 7.15625e-015 1.43125e-014
rhumerus -4.96626 -20.6734 -67.2366
rradius 56.6125
rwrist -46.3128
rhand -2.5616 28.9287
rfingers 7.12502
rthumb 23.1347 0.297798
lclavicle 7.15625e-015 1.43125e-014
lhumerus -15.9489 -19.9661 94.5269
lradius 42.3493
lwrist -3.4767
lhand 1.89757 37.3332
lfingers 7.12502
lthumb 27.4066 65.3599
rfemur -23.6866 -3.60029 4.26835
rtibia 31.5936
rfoot -8.69219 -5.33842
rtoes -11.7154
lfemur -8.12423 4.84355 -21.3165
ltibia 26.2676
lfoot -18.7406 10.3359
ltoes -7.12167
50
root 8.88799 17.6738 5.43291 -162.797 -63.803 168.138
lowerback 7.56131 -1.85193 -4.17584
upperback 3.53999 -2.87813 3.41297
thorax -0.181346 -1.59662 6.11435
lowerneck -1.70651 -14.8035 -16.6693
upperneck 14.3933 -22.4329 15.661
head 8.41365 -10.9249 5.40506
rclavicle -1.31198e-014 7.95139e-015
rhumerus -5.53532 -20.302 -67.4004
rradius 57.8516
rwrist -46.272
rhand -3.6744 27.2657
rfingers 7.12502
rthumb 22.0666 -1.49531
lclavicle -1.31198e-014 7.95139e-015
lhumerus -15.3201 -21.0155 94.6036
lradius 42.714
lwrist -3.36089
lhand 2.01775 37.311
lfingers 7.12502
lthumb 27.5216 65.3195
rfemur -23.6988 -3.9595 4.51834
rtibia 31.9582
rfoot -8.83345 -5.37775
rtoes -12.3803
lfemur -8.40723 5.02021 -21.0404
ltibia 26.942
lfoot -18.7909 9.68606
ltoes -5.12352
51
root 8.89412 17.6772 5.39967 -162.272 -64.0669 167.737
lowerback 7.73875 -2.04102 -4.07304
upperback 3.5048 -3.12928 3.47046
thorax -0.284077 -1.71894 6.14279
lowerneck -2.04945 -14.7744 -16.745
upperneck 14.5349 -22.3389 15.5979
head 8.50607 -10.8634 5.38143
rclavicle 8.0309e-014 -3.33958e-014
rhumerus -6.00949 -19.2363 -67.5236
rradius 59.2872
rwrist -46.3047
rhand -3.5861 27.4403
rfingers 7.12502
rthumb 22.1514 -1.3106
lclavicle 8.0309e-014 -3.33958e-014
lhumerus -14.48 -21.3129 94.7264
lradius 43.07
lwrist -3.7366
lhand 1.55006 36.372
lfingers 7.12502
lthumb 27.0742 64.4509
rfemur -23.8029 -4.42296 4.60368
rtibia 32.3
rfoot -9.0445 -5.38555
rtoes -14.7826
lfemur -8.94533 5.05773 -21.0148
ltibia 27.6421
lfoot -18.8435 9.18386
ltoes -3.50873
52
root 8.89724 17.6988 5.35813 -163.205 -64.4139 169.001
lowerback 7.75711 -2.14418 -3.89833
upperback 3.5114 -3.27152 4.14844
thorax -0.234992 -1.80738 6.77195
lowerneck -2.31261 -14.7637 -17.1401
upperneck 14.4972 -22.1911 15.4425
head 8.54158 -10.7983 5.3871
rclavicle -7.67309e-014 1.59028e-014
rhumerus -6.10663 -18.0321 -67.2128
rradius 60.5318
rwrist -46.3226
rhand -4.73118 27.1169
rfingers 7.12502
rthumb 21.0517 -1.76044
lclavicle -7.67309e-014 1.59028e-014
lhumerus -13.6154 -21.2734 95.4104
lradius 43.5268
lwrist -4.24042
lhand 0.826905 35.5232
lfingers 7.12502
lthumb 26.3822 63.7078
rfemur -23.8559 -4.54681 5.53962
rtibia 32.5239
rfoot -9.2149 -5.67257
rtoes -18.0261
lfemur -9.56119 5.13038 -20.1819
ltibia 28.4495
lfoot -19.0133 8.89013
ltoes -3.14179
53
root 8.9065 17.7154 5.30973 -164.712 -64.6019 170.682
lowerback 7.96096 -2.09677 -3.52602
upperback 3.55503 -3.20746 4.67354
thorax -0.30053 -1.78717 7.12419
lowerneck -2.22385 -14.7729 -17.187
upperneck 14.1636 -22.1343 15.4294
head 8.40893 -10.7786 5.40936
rclavicle 2.42517e-014 2.06736e-014
rhumerus -6.28337 -17.4383 -67.0181
rradius 61.6998
rwrist -46.5343
rhand -5.28383 26.5621
rfingers 7.12502
rthumb 20.5207 -2.37343
lclavicle 2.42517e-014 2.06736e-014
lhumerus -12.8746 -21.8795 95.9417
lradius 43.9041
lwrist -4.14662
lhand 1.44218 37.3044
lfingers 7.12502
lthumb 26.971 65.3992
rfemur -23.8845 -3.83497 6.39525
rtibia 32.7226
rfoot -9.55494 -5.96751
rtoes -16.9399
lfemur -10.0118 5.6193 -19.1454
ltibia 29.2777
lfoot -19.2032 8.43585
ltoes -2.75944
54
root 8.91789 17.6908 5.27133 -165.226 -64.6591 171.206
lowerback 8.24048 -2.03957 -3.13134
upperback 3.6001 -3.11306 4.664
thorax -0.445617 -1.73451 6.89441
lowerneck -2.14523 -14.8332 -16.6899
upperneck 13.8528 -22.1803 15.3403
head 8.23005 -10.7894 5.31774
rclavicle 2.18663e-014 6.36111e-015
rhumerus -6.56539 -17.2862 -67.227
rradius 62.7972
rwrist -47.0619
rhand -5.38807 26.0389
rfingers 7.12502
rthumb 20.4205 -2.90732
lclavicle 2.18663e-014 6.36111e-015
lhumerus -12.1238 -23.0256 96.0178
lradius 44.2124
lwrist -3.51203
lhand 1.11794 36.6438
lfingers 7.12502
lthumb 26.6607 64.7863
rfemur -24.1 -3.46324 6.53304
rtibia 32.936
rfoot -9.90246 -5.50477
rtoes -13.0376
lfemur -10.4107 6.11477 -18.707
ltibia 30.0982
lfoot -19.1164 7.94177
ltoes -2.09526
55
root 8.92061 17.656 5.23804 -164.69 -64.7386 170.692
lowerback 8.29024 -2.07291 -3.0608
upperback 3.64355 -3.15282 4.53601
thorax -0.434324 -1.75253 6.72152
lowerneck -2.20767 -14.8799 -16.344
upperneck 13.7206 -22.2012 15.2175
head 8.14468 -10.787 5.22648
rclavicle -7.55382e-015 6.36111e-015
rhumerus -6.75247 -16.9711 -67.4999
rradius 63.802
rwrist -47.9135
rhand -5.18316 25.6414
rfingers 7.12502
rthumb 20.6174 -3.28366
lclavicle -7.55382e-015 6.36111e-015
lhumerus -11.3647 -23.9423 96.121
lradius 44.649
lwrist -3.12354
lhand 0.559638 36.7479
lfingers 7.12502
lthumb 26.1263 64.9706
rfemur -24.3861 -3.92281 6.33002
rtibia 33.2157
rfoot -10.0142 -4.75044
rtoes -10.9686
lfemur -10.879 6.33712 -18.8286
ltibia 30.9038
lfoot -19.0988 7.92092
ltoes -3.44485
